<svg preserveAspectRatio="none" width="100%" height="100%" overflow="visible" style="display: block;" viewBox="0 0 14 14" fill="none" xmlns="http://www.w3.org/2000/svg">
<g id="Database">
<path id="Vector" d="M7 4.66667C9.8995 4.66667 12.25 3.88317 12.25 2.91667C12.25 1.95017 9.8995 1.16667 7 1.16667C4.10051 1.16667 1.75 1.95017 1.75 2.91667C1.75 3.88317 4.10051 4.66667 7 4.66667Z" stroke="var(--stroke-0, black)" stroke-width="1.16667" stroke-linecap="round" stroke-linejoin="round"/>
<path id="Vector_2" d="M1.75 2.91667V11.0833C1.75 11.5475 2.30312 11.9926 3.28769 12.3208C4.27226 12.649 5.60761 12.8333 7 12.8333C8.39239 12.8333 9.72774 12.649 10.7123 12.3208C11.6969 11.9926 12.25 11.5475 12.25 11.0833V2.91667" stroke="var(--stroke-0, black)" stroke-width="1.16667" stroke-linecap="round" stroke-linejoin="round"/>
<path id="Vector_3" d="M1.75 7C1.75 7.46413 2.30312 7.90925 3.28769 8.23744C4.27226 8.56563 5.60761 8.75 7 8.75C8.39239 8.75 9.72774 8.56563 10.7123 8.23744C11.6969 7.90925 12.25 7.46413 12.25 7" stroke="var(--stroke-0, black)" stroke-width="1.16667" stroke-linecap="round" stroke-linejoin="round"/>
</g>
</svg>
