<svg preserveAspectRatio="none" width="100%" height="100%" overflow="visible" style="display: block;" viewBox="0 0 21 21" fill="none" xmlns="http://www.w3.org/2000/svg">
<g id="Icon">
<path id="Vector" d="M17.5 11.375C17.5 15.75 14.4375 17.9375 10.7975 19.2062C10.6069 19.2708 10.3998 19.2677 10.2113 19.1975C6.5625 17.9375 3.5 15.75 3.5 11.375V5.25C3.5 5.01794 3.59219 4.79538 3.75628 4.63128C3.92038 4.46719 4.14294 4.375 4.375 4.375C6.125 4.375 8.3125 3.325 9.835 1.995C10.0204 1.83662 10.2562 1.74961 10.5 1.74961C10.7438 1.74961 10.9796 1.83662 11.165 1.995C12.6963 3.33375 14.875 4.375 16.625 4.375C16.8571 4.375 17.0796 4.46719 17.2437 4.63128C17.4078 4.79538 17.5 5.01794 17.5 5.25V11.375Z" stroke="var(--stroke-0, white)" stroke-width="1.75" stroke-linecap="round" stroke-linejoin="round"/>
</g>
</svg>
