<svg preserveAspectRatio="none" width="100%" height="100%" overflow="visible" style="display: block;" viewBox="0 0 18.375 18.375" fill="none" xmlns="http://www.w3.org/2000/svg">
<g id="Icon">
<path id="Vector" d="M15.3125 9.95312C15.3125 13.7812 12.6328 15.6953 9.44781 16.8055C9.28103 16.862 9.09986 16.8593 8.93484 16.7978C5.74219 15.6953 3.0625 13.7812 3.0625 9.95312V4.59375C3.0625 4.39069 3.14316 4.19595 3.28675 4.05237C3.43033 3.90879 3.62507 3.82813 3.82812 3.82813C5.35938 3.82813 7.27344 2.90937 8.60562 1.74562C8.76783 1.60705 8.97416 1.53091 9.1875 1.53091C9.40084 1.53091 9.60717 1.60705 9.76938 1.74562C11.1092 2.91703 13.0156 3.82813 14.5469 3.82813C14.7499 3.82813 14.9447 3.90879 15.0883 4.05237C15.2318 4.19595 15.3125 4.39069 15.3125 4.59375V9.95312Z" stroke="var(--stroke-0, black)" stroke-width="1.53125" stroke-linecap="round" stroke-linejoin="round"/>
<path id="Vector_2" d="M6.89062 9.1875L8.42188 10.7188L11.4844 7.65625" stroke="var(--stroke-0, black)" stroke-width="1.53125" stroke-linecap="round" stroke-linejoin="round"/>
</g>
</svg>
