<svg preserveAspectRatio="none" width="100%" height="100%" overflow="visible" style="display: block;" viewBox="0 0 14 14" fill="none" xmlns="http://www.w3.org/2000/svg">
<g id="Filter">
<path id="Vector" d="M5.83333 11.6667C5.83328 11.7751 5.86344 11.8813 5.92042 11.9736C5.9774 12.0658 6.05895 12.1403 6.15592 12.1888L7.32258 12.7721C7.41154 12.8165 7.51038 12.8375 7.60973 12.833C7.70907 12.8285 7.80561 12.7987 7.89018 12.7464C7.97476 12.6941 8.04456 12.621 8.09295 12.5341C8.14134 12.4472 8.16671 12.3494 8.16667 12.25V8.16667C8.1668 7.87756 8.27427 7.59879 8.46825 7.38442L12.6817 2.72417C12.7572 2.64049 12.8068 2.53673 12.8246 2.42543C12.8424 2.31413 12.8276 2.20006 12.7819 2.09701C12.7363 1.99396 12.6617 1.90635 12.5673 1.84476C12.4729 1.78318 12.3627 1.75027 12.25 1.75H1.75C1.63719 1.75004 1.52681 1.78279 1.43223 1.84429C1.33765 1.90578 1.26293 1.99338 1.21713 2.09648C1.17132 2.19957 1.15639 2.31374 1.17415 2.42514C1.1919 2.53655 1.24158 2.64042 1.31717 2.72417L5.53175 7.38442C5.72573 7.59879 5.8332 7.87756 5.83333 8.16667V11.6667Z" stroke="var(--stroke-0, white)" stroke-width="1.16667" stroke-linecap="round" stroke-linejoin="round"/>
</g>
</svg>
