<svg preserveAspectRatio="none" width="100%" height="100%" overflow="visible" style="display: block;" viewBox="0 0 21 21" fill="none" xmlns="http://www.w3.org/2000/svg">
<g id="Icon">
<path id="Vector" d="M10.5 7C14.8492 7 18.375 5.82475 18.375 4.375C18.375 2.92525 14.8492 1.75 10.5 1.75C6.15076 1.75 2.625 2.92525 2.625 4.375C2.625 5.82475 6.15076 7 10.5 7Z" stroke="var(--stroke-0, white)" stroke-width="1.75" stroke-linecap="round" stroke-linejoin="round"/>
<path id="Vector_2" d="M2.625 4.375V16.625C2.625 17.3212 3.45469 17.9889 4.93153 18.4812C6.40838 18.9734 8.41142 19.25 10.5 19.25C12.5886 19.25 14.5916 18.9734 16.0685 18.4812C17.5453 17.9889 18.375 17.3212 18.375 16.625V4.375" stroke="var(--stroke-0, white)" stroke-width="1.75" stroke-linecap="round" stroke-linejoin="round"/>
<path id="Vector_3" d="M2.625 10.5C2.625 11.1962 3.45469 11.8639 4.93153 12.3562C6.40838 12.8484 8.41142 13.125 10.5 13.125C12.5886 13.125 14.5916 12.8484 16.0685 12.3562C17.5453 11.8639 18.375 11.1962 18.375 10.5" stroke="var(--stroke-0, white)" stroke-width="1.75" stroke-linecap="round" stroke-linejoin="round"/>
</g>
</svg>
