<svg preserveAspectRatio="none" width="100%" height="100%" overflow="visible" style="display: block;" viewBox="0 0 17.5 17.5" fill="none" xmlns="http://www.w3.org/2000/svg">
<g id="Activity">
<path id="Vector" d="M16.0417 8.75H14.2333C13.9147 8.74932 13.6045 8.85304 13.3504 9.04529C13.0963 9.23754 12.9121 9.50775 12.826 9.81458L11.1125 15.9104C11.1015 15.9483 11.0784 15.9815 11.0469 16.0052C11.0153 16.0289 10.9769 16.0417 10.9375 16.0417C10.8981 16.0417 10.8597 16.0289 10.8281 16.0052C10.7966 15.9815 10.7735 15.9483 10.7625 15.9104L6.7375 1.58958C6.72646 1.55172 6.70343 1.51846 6.67187 1.49479C6.64032 1.47113 6.60194 1.45833 6.5625 1.45833C6.52306 1.45833 6.48468 1.47113 6.45313 1.49479C6.42157 1.51846 6.39854 1.55172 6.3875 1.58958L4.67396 7.68542C4.58826 7.99105 4.40517 8.26038 4.1525 8.45251C3.89984 8.64464 3.59138 8.74909 3.27396 8.75H1.45833" stroke="var(--stroke-0, white)" stroke-width="1.45833" stroke-linecap="round" stroke-linejoin="round"/>
</g>
</svg>
