<svg preserveAspectRatio="none" width="100%" height="100%" overflow="visible" style="display: block;" viewBox="0 0 80 17.7085" fill="none" xmlns="http://www.w3.org/2000/svg">
<g id="logo.svg" clip-path="url(#clip0_741_5671)">
<path id="Vector" d="M0 0H2.80614V14.7282L0 17.6739V0ZM5.61226 14.7282C7.1846 14.7282 8.44633 13.4027 8.44633 11.7826C8.44633 10.1627 7.18329 8.83716 5.61226 8.83716V5.89129C6.39782 5.89129 7.01531 5.24309 7.01531 4.41969C7.01531 3.59496 6.398 2.94675 5.61226 2.94675V0C7.94089 0 9.82229 1.97289 9.82229 4.41858C9.82229 5.41961 9.5132 6.33247 8.98095 7.06887C10.3279 8.12995 11.2256 9.86756 11.2256 11.7815C11.2256 15.0225 8.72873 17.6728 5.61332 17.6728V14.7282H5.61226ZM12.6331 5.89129V0H15.4392V5.89019H18.2453L15.4392 8.83691L12.6331 5.89129ZM18.2443 8.83716L21.0504 5.89151V0H23.8565V5.89019L21.0504 8.83585V14.7271L18.2443 17.6728V8.83716ZM26.6692 0H29.4753V14.7282L26.6692 17.6739V0ZM32.2802 8.83716C33.8246 8.83716 35.0863 7.51115 35.0863 5.89129C35.0863 4.27144 33.8235 2.94565 32.2802 2.94565V0C35.3677 0 37.8924 2.65049 37.8924 5.89019C37.8924 9.13122 35.3677 11.7815 32.2802 11.7815V8.83716ZM35.0874 11.7826L37.8935 14.7282V17.6739H35.0874V11.7826ZM40.7047 0H43.5108V14.7282L40.7047 17.6739V0ZM46.3159 0H51.9282V2.94565H46.3159V0ZM46.3159 5.89129H51.9282V8.83716H46.3159V5.89129ZM46.3159 14.7285H51.9282V17.6739H46.3159V14.7285ZM54.7408 0H57.5469V14.7282L54.7408 17.6739V0ZM60.352 14.7282C61.8962 14.7282 63.1582 13.4027 63.1582 11.7826V5.89129C63.1582 4.27144 61.8951 2.94565 60.352 2.94565V0C63.4675 0 65.9641 2.65049 65.9641 5.89019V11.7815C65.9641 15.0225 63.4675 17.6728 60.352 17.6728V14.7282ZM68.7757 5.89174C68.7757 2.65203 71.3004 0.0015465 74.3869 0.0015465C77.5021 0.0015465 79.9988 2.65203 79.9988 5.89151L77.1928 8.83735V5.89174C77.1935 5.50408 77.1217 5.12009 76.9808 4.76186C76.8399 4.40364 76.6335 4.07826 76.3722 3.80446C76.1116 3.53067 75.8017 3.31387 75.4613 3.16655C75.1202 3.01924 74.7554 2.94431 74.3869 2.94609C72.8436 2.94609 71.5804 4.27166 71.5804 5.89174L68.7744 8.83716V5.89174H68.7757ZM68.7757 11.783L71.5816 8.83735V11.783C71.5816 13.4029 72.8449 14.7287 74.3875 14.7287C74.756 14.7305 75.1214 14.6557 75.4619 14.5084C75.803 14.3611 76.1129 14.1443 76.3735 13.8705C76.6348 13.5967 76.8412 13.2713 76.9821 12.913C77.123 12.5548 77.1947 12.1707 77.1941 11.783L80 8.83735V11.783C80 15.024 77.5033 17.6743 74.3875 17.6743C71.3016 17.6743 68.7757 15.0239 68.7757 11.783Z" fill="var(--fill-0, black)"/>
</g>
<defs>
<clipPath id="clip0_741_5671">
<rect width="80" height="17.7085" fill="white"/>
</clipPath>
</defs>
</svg>
