<svg preserveAspectRatio="none" width="100%" height="100%" overflow="visible" style="display: block;" viewBox="0 0 1413 294" fill="none" xmlns="http://www.w3.org/2000/svg">
<path id="Vector" d="M0 0H49.5633V244.994L0 293.993V0ZM99.1267 244.994C126.898 244.994 149.183 222.944 149.183 195.995C149.183 169.05 126.875 147 99.1267 147V97.9976C113.001 97.9976 123.908 87.2151 123.908 73.5184C123.908 59.7996 113.005 49.0172 99.1267 49.0172V0C140.256 0 173.487 32.8178 173.487 73.5C173.487 90.1514 168.027 105.337 158.626 117.585C182.417 135.236 198.272 164.14 198.272 195.977C198.272 249.889 154.171 293.974 99.1452 293.974V244.994H99.1267ZM223.131 97.9976V0H272.695V97.9792H322.258L272.695 146.996L223.131 97.9976ZM322.24 147L371.803 98.0012V0H421.366V97.9792L371.803 146.978V244.976L322.24 293.974V147ZM471.045 0H520.608V244.994L471.045 293.993V0ZM570.149 147C597.427 147 619.712 124.943 619.712 97.9976C619.712 71.0525 597.408 48.9988 570.149 48.9988V0C624.682 0 669.276 44.089 669.276 97.9792C669.276 151.891 624.682 195.977 570.149 195.977V147ZM619.731 195.995L669.294 244.994V293.993H619.731V195.995ZM718.946 0H768.51V244.994L718.946 293.993V0ZM818.055 0H917.181V48.9988H818.055V0ZM818.055 97.9976H917.181V147H818.055V97.9976ZM818.055 244.998H917.181V293.993H818.055V244.998ZM966.859 0H1016.42V244.994L966.859 293.993V0ZM1065.97 244.994C1093.24 244.994 1115.53 222.944 1115.53 195.995V97.9976C1115.53 71.0525 1093.22 48.9988 1065.97 48.9988V0C1120.99 0 1165.09 44.089 1165.09 97.9792V195.977C1165.09 249.889 1120.99 293.974 1065.97 293.974V244.994ZM1214.75 98.0049C1214.75 44.1147 1259.34 0.025725 1313.85 0.025725C1368.88 0.025725 1412.98 44.1147 1412.98 98.0012L1363.42 147.004V98.0049C1363.43 91.5566 1362.16 85.1691 1359.67 79.2103C1357.19 73.2514 1353.53 67.839 1348.93 63.2846C1344.32 58.7303 1338.85 55.124 1332.83 52.6734C1326.81 50.2229 1320.36 48.9765 1313.85 49.0061C1286.6 49.0061 1264.29 71.0561 1264.29 98.0049L1214.73 147V98.0049H1214.75ZM1214.75 196.002L1264.31 147.004V196.002C1264.31 222.948 1286.62 245.001 1313.87 245.001C1320.38 245.032 1326.83 243.787 1332.85 241.337C1338.87 238.887 1344.34 235.281 1348.95 230.726C1353.56 226.171 1357.21 220.758 1359.69 214.799C1362.18 208.839 1363.45 202.451 1363.44 196.002L1413 147.004V196.002C1413 249.915 1368.9 294 1313.87 294C1259.36 294 1214.75 249.911 1214.75 196.002Z" fill="var(--fill-0, black)"/>
</svg>
